<svg width="16" height="16" viewBox="0 0 16 16" fill="none" xmlns="http://www.w3.org/2000/svg">
<g clip-path="url(#clip0_2831_1884)">
<path d="M11.1825 0.349609H5.72797C4.78706 0.349609 4.02344 1.11324 4.02344 2.05415V13.6451C4.02344 14.586 4.78706 15.3496 5.72797 15.3496H11.1825C12.1234 15.3496 12.8871 14.586 12.8871 13.6451V2.05415C12.8871 1.11324 12.1234 0.349609 11.1825 0.349609ZM8.45527 14.6678C7.88935 14.6678 7.43254 14.211 7.43254 13.6451C7.43254 13.0792 7.88935 12.6223 8.45527 12.6223C9.02119 12.6223 9.478 13.0792 9.478 13.6451C9.478 14.211 9.02116 14.6678 8.45527 14.6678ZM11.5235 11.9405H5.38709V2.39507H11.5235V11.9405Z" fill="#664EF9"/>
</g>
<defs>
<clipPath id="clip0_2831_1884">
<rect width="15" height="15" fill="white" transform="translate(0.955078 0.349609)"/>
</clipPath>
</defs>
</svg>
