<svg width="15" height="15" viewBox="0 0 15 15" fill="none" xmlns="http://www.w3.org/2000/svg">
<g clip-path="url(#clip0_2831_1344)">
<path d="M7.5 0C3.36443 0 0 3.36443 0 7.5C0 11.6356 3.36443 15 7.5 15C11.6356 15 15 11.6356 15 7.5C15 3.36443 11.6356 0 7.5 0ZM7.5 13.3607C4.26835 13.3607 1.63934 10.7317 1.63934 7.5C1.63934 4.26851 4.26835 1.63934 7.5 1.63934C10.7317 1.63934 13.3607 4.26851 13.3607 7.5C13.3607 10.7317 10.7317 13.3607 7.5 13.3607Z" fill="white"/>
<path d="M8.14909 7.5093V4.36588C8.14909 4.01489 7.86467 3.73047 7.51382 3.73047C7.16286 3.73047 6.87842 4.01489 6.87842 4.36588V7.71229C6.87842 7.72228 6.88088 7.73166 6.88136 7.74165C6.87301 7.91443 6.93253 8.08985 7.06448 8.22183L9.43088 10.5881C9.67909 10.8363 10.0814 10.8363 10.3294 10.5881C10.5774 10.3399 10.5776 9.93757 10.3294 9.68953L8.14909 7.5093Z" fill="white"/>
</g>
<defs>
<clipPath id="clip0_2831_1344">
<rect width="15" height="15" fill="white"/>
</clipPath>
</defs>
</svg>
