<svg width="18" height="18" viewBox="0 0 18 18" fill="none" xmlns="http://www.w3.org/2000/svg">
<g clip-path="url(#clip0_2831_2023)">
<path d="M16.3926 16.0709C16.7973 16.0709 17.1479 15.9373 17.4459 15.6735L12.3462 10.5736C12.2239 10.6613 12.1053 10.7465 11.9932 10.8275C11.6116 11.1086 11.3018 11.3281 11.064 11.4853C10.8262 11.6429 10.5098 11.8035 10.1148 11.9675C9.71958 12.1317 9.35137 12.2135 9.0098 12.2135H8.9998H8.9898C8.6482 12.2135 8.27999 12.1317 7.88479 11.9675C7.48959 11.8035 7.17318 11.6429 6.9356 11.4853C6.69779 11.3281 6.38821 11.1087 6.00638 10.8275C5.89997 10.7495 5.78196 10.6639 5.65438 10.5723L0.553711 15.6735C0.85172 15.9373 1.20254 16.0709 1.60712 16.0709H16.3926Z" fill="white"/>
<path d="M1.01462 7.36228C0.633012 7.10786 0.294611 6.81649 0 6.48828V14.2473L4.49485 9.75249C3.59562 9.12471 2.43702 8.32889 1.01462 7.36228Z" fill="white"/>
<path d="M16.9964 7.36228C15.6282 8.2883 14.4654 9.08549 13.5078 9.75429L18.0008 14.2475V6.48828C17.7128 6.80989 17.378 7.10106 16.9964 7.36228Z" fill="white"/>
<path d="M16.3925 1.92773H1.60704C1.09122 1.92773 0.694647 2.10192 0.416834 2.44993C0.138792 2.7981 0 3.23353 0 3.75572C0 4.17753 0.184185 4.63456 0.552391 5.12695C0.920597 5.61914 1.3124 6.00575 1.7276 6.28696C1.95521 6.44778 2.64163 6.92497 3.78683 7.71838C4.40504 8.14678 4.94266 8.52018 5.40466 8.84241C5.79845 9.11679 6.13806 9.3544 6.41846 9.5516C6.45065 9.57418 6.50127 9.61039 6.56846 9.65843C6.64084 9.71042 6.73245 9.7764 6.84545 9.858C7.06307 10.0154 7.24386 10.1426 7.38785 10.2398C7.53164 10.337 7.70585 10.4456 7.91024 10.5662C8.11445 10.6866 8.30707 10.7772 8.48785 10.8374C8.66867 10.8976 8.83606 10.9278 8.99005 10.9278H9.00005H9.01005C9.164 10.9278 9.33142 10.8976 9.51228 10.8374C9.69303 10.7772 9.88548 10.6868 10.0899 10.5662C10.294 10.4456 10.468 10.3368 10.6123 10.2398C10.7563 10.1426 10.9371 10.0154 11.1547 9.858C11.2675 9.7764 11.3591 9.71039 11.4315 9.65859C11.4987 9.61035 11.5493 9.57437 11.5817 9.5516C11.8001 9.3996 12.1405 9.16296 12.5982 8.84518C13.4309 8.26658 14.6573 7.41497 16.2826 6.28696C16.7714 5.94555 17.1797 5.53355 17.5079 5.05155C17.8356 4.56956 17.9998 4.06396 17.9998 3.53494C17.9998 3.09294 17.8406 2.71474 17.5227 2.39973C17.2046 2.08512 16.8278 1.92773 16.3925 1.92773Z" fill="white"/>
</g>
<defs>
<clipPath id="clip0_2831_2023">
<rect width="18" height="18" fill="white"/>
</clipPath>
</defs>
</svg>
