<svg width="24" height="24" viewBox="0 0 24 24" fill="none" xmlns="http://www.w3.org/2000/svg">
<path d="M11.8056 5.90907C8.48036 5.90907 5.79677 8.59267 5.79677 11.9179C5.79677 15.2431 8.48036 17.9267 11.8056 17.9267C15.1308 17.9267 17.8143 15.2431 17.8143 11.9179C17.8143 8.59267 15.1308 5.90907 11.8056 5.90907ZM11.8056 15.8231C9.65517 15.8231 7.90028 14.0683 7.90028 11.9179C7.90028 9.76747 9.65517 8.01259 11.8056 8.01259C13.9559 8.01259 15.7108 9.76747 15.7108 11.9179C15.7108 14.0683 13.9559 15.8231 11.8056 15.8231ZM18.0604 4.26259C17.2841 4.26259 16.6571 4.88954 16.6571 5.66591C16.6571 6.44228 17.2841 7.06923 18.0604 7.06923C18.8368 7.06923 19.4638 6.44521 19.4638 5.66591C19.464 5.48156 19.4279 5.29897 19.3574 5.12861C19.287 4.95825 19.1836 4.80345 19.0533 4.6731C18.9229 4.54274 18.7681 4.43938 18.5977 4.36894C18.4274 4.2985 18.2448 4.26236 18.0604 4.26259ZM23.5184 11.9179C23.5184 10.3007 23.5331 8.69814 23.4423 7.08388C23.3515 5.20888 22.9237 3.54482 21.5526 2.17372C20.1786 0.799699 18.5175 0.374895 16.6425 0.284075C15.0253 0.193254 13.4227 0.207903 11.8085 0.207903C10.1913 0.207903 8.58876 0.193254 6.9745 0.284075C5.0995 0.374895 3.43544 0.802629 2.06435 2.17372C0.690324 3.54775 0.26552 5.20888 0.174699 7.08388C0.0838792 8.70107 0.0985277 10.3036 0.0985277 11.9179C0.0985277 13.5321 0.0838792 15.1376 0.174699 16.7519C0.26552 18.6269 0.693254 20.2909 2.06435 21.662C3.43837 23.036 5.0995 23.4608 6.9745 23.5517C8.59169 23.6425 10.1942 23.6278 11.8085 23.6278C13.4257 23.6278 15.0282 23.6425 16.6425 23.5517C18.5175 23.4608 20.1815 23.0331 21.5526 21.662C22.9267 20.288 23.3515 18.6269 23.4423 16.7519C23.536 15.1376 23.5184 13.5351 23.5184 11.9179ZM20.9403 18.8261C20.7265 19.3593 20.4686 19.7577 20.0556 20.1679C19.6425 20.581 19.247 20.8388 18.7138 21.0526C17.1727 21.6649 13.5136 21.5272 11.8056 21.5272C10.0975 21.5272 6.43544 21.6649 4.89443 21.0556C4.36122 20.8417 3.96279 20.5839 3.55263 20.1708C3.13954 19.7577 2.88173 19.3622 2.66786 18.829C2.05849 17.2851 2.19618 13.6259 2.19618 11.9179C2.19618 10.2099 2.05849 6.54775 2.66786 5.00673C2.88173 4.47353 3.13954 4.07509 3.55263 3.66493C3.96571 3.25478 4.36122 2.99404 4.89443 2.78017C6.43544 2.17079 10.0975 2.30849 11.8056 2.30849C13.5136 2.30849 17.1757 2.17079 18.7167 2.78017C19.2499 2.99404 19.6483 3.25185 20.0585 3.66493C20.4716 4.07802 20.7294 4.47353 20.9433 5.00673C21.5526 6.54775 21.4149 10.2099 21.4149 11.9179C21.4149 13.6259 21.5526 17.2851 20.9403 18.8261Z" fill="#1E2123"/>
</svg>
