<svg width="9" height="10" viewBox="0 0 9 10" fill="none" xmlns="http://www.w3.org/2000/svg">
<path d="M7.43757 1.74419C6.70501 0.627907 5.49571 0 4.13525 0C2.78641 0 1.57711 0.627907 0.821293 1.74419C0.0654788 2.83721 -0.10894 4.23256 0.356176 5.45349C0.484083 5.77907 0.681758 6.11628 0.937572 6.4186L3.87943 9.88372C3.9492 9.95349 4.01897 10 4.12362 10C4.22827 10 4.29804 9.95349 4.3678 9.88372L7.32129 6.4186C7.57711 6.11628 7.78641 5.7907 7.90269 5.45349C8.3678 4.23256 8.19339 2.83721 7.43757 1.74419ZM4.13525 5.86047C3.13525 5.86047 2.30966 5.03488 2.30966 4.03488C2.30966 3.03488 3.13525 2.2093 4.13525 2.2093C5.13525 2.2093 5.96083 3.03488 5.96083 4.03488C5.96083 5.03488 5.14687 5.86047 4.13525 5.86047Z" fill="#8291A3"/>
</svg>
