<svg width="18" height="18" viewBox="0 0 18 18" fill="none" xmlns="http://www.w3.org/2000/svg">
<path d="M6.91109 4.29814C6.91109 2.90551 5.937 1.73697 4.63453 1.4358V0.661897C4.63453 0.296309 4.33822 0 3.97264 0C3.60705 0 3.31074 0.296309 3.31074 0.661897V1.4358C2.00835 1.73689 1.03418 2.90551 1.03418 4.29814C1.03418 5.69077 2.00827 6.85931 3.31074 7.16048V17.3381C3.31074 17.7037 3.60705 18 3.97264 18C4.33822 18 4.63453 17.7037 4.63453 17.3381V7.16048C5.937 6.85931 6.91109 5.69077 6.91109 4.29814ZM2.35805 4.29814C2.35805 3.40781 3.08238 2.68348 3.97271 2.68348C4.86303 2.68348 5.58737 3.40781 5.58737 4.29814C5.58737 5.18846 4.86303 5.9128 3.97271 5.9128C3.08238 5.9128 2.35805 5.18846 2.35805 4.29814Z" fill="#664EF9"/>
<path d="M9.66188 8.89222V0.661897C9.66188 0.296309 9.36557 0 8.99998 0C8.63439 0 8.33808 0.296309 8.33808 0.661897V8.89222C7.03569 9.19331 6.06152 10.3619 6.06152 11.7546C6.06152 13.1472 7.03562 14.3157 8.33808 14.6169V17.3381C8.33808 17.7037 8.63439 18 8.99998 18C9.36557 18 9.66188 17.7037 9.66188 17.3381V14.6169C10.9643 14.3158 11.9384 13.1472 11.9384 11.7546C11.9384 10.3619 10.9643 9.19338 9.66188 8.89222ZM7.38539 11.7546C7.38539 10.8642 8.10973 10.1399 9.00005 10.1399C9.89038 10.1399 10.6147 10.8642 10.6147 11.7546C10.6147 12.6449 9.89038 13.3692 9.00005 13.3692C8.10973 13.3692 7.38539 12.6449 7.38539 11.7546Z" fill="#664EF9"/>
<path d="M16.9658 7.20151C16.9658 5.80888 15.9917 4.64034 14.6892 4.33918V0.661897C14.6892 0.296309 14.3929 0 14.0273 0C13.6617 0 13.3654 0.296309 13.3654 0.661897V4.33918C12.063 4.64027 11.0889 5.80888 11.0889 7.20151C11.0889 8.59415 12.063 9.76269 13.3654 10.0639V17.3381C13.3654 17.7037 13.6617 18 14.0273 18C14.3929 18 14.6892 17.7037 14.6892 17.3381V10.0639C15.9917 9.76269 16.9658 8.59415 16.9658 7.20151ZM12.4127 7.20151C12.4127 6.31119 13.1371 5.58685 14.0274 5.58685C14.9177 5.58685 15.6421 6.31119 15.6421 7.20151C15.6421 8.09184 14.9177 8.81618 14.0274 8.81618C13.1371 8.81618 12.4127 8.09184 12.4127 7.20151Z" fill="#664EF9"/>
</svg>
