<svg width="16" height="16" viewBox="0 0 16 16" fill="none" xmlns="http://www.w3.org/2000/svg">
<g clip-path="url(#clip0_2831_1903)">
<path d="M8.001 0.794922C5.85814 0.794922 4.10645 2.54661 4.10645 4.68949C4.10645 6.83236 5.85814 8.58405 8.001 8.58405C10.1439 8.58405 11.8956 6.83236 11.8956 4.68949C11.8956 2.54661 10.1439 0.794922 8.001 0.794922Z" fill="#686868"/>
<path d="M14.6852 11.6969C14.5832 11.4418 14.4471 11.2037 14.2941 10.9826C13.5118 9.82616 12.3043 9.06086 10.9438 8.87378C10.7737 8.85679 10.5866 8.89077 10.4506 8.99282C9.73627 9.52004 8.88595 9.79214 8.00157 9.79214C7.1172 9.79214 6.26687 9.52004 5.55258 8.99282C5.41651 8.89077 5.22944 8.83976 5.05938 8.87378C3.69884 9.06086 2.47436 9.82616 1.70906 10.9826C1.556 11.2037 1.41993 11.4588 1.31791 11.6969C1.2669 11.799 1.2839 11.918 1.3349 12.0201C1.47097 12.2582 1.64102 12.4963 1.79408 12.7003C2.03217 13.0235 2.28728 13.3126 2.57641 13.5847C2.81449 13.8228 3.0866 14.0439 3.35873 14.265C4.70225 15.2684 6.31791 15.7956 7.98458 15.7956C9.65125 15.7956 11.2669 15.2684 12.6104 14.265C12.8825 14.0609 13.1546 13.8228 13.3927 13.5847C13.6649 13.3126 13.937 13.0235 14.1751 12.7003C14.3451 12.4793 14.4982 12.2582 14.6343 12.0201C14.7192 11.918 14.7362 11.7989 14.6852 11.6969Z" fill="#686868"/>
</g>
<defs>
<clipPath id="clip0_2831_1903">
<rect width="15" height="15" fill="white" transform="translate(0.5 0.794922)"/>
</clipPath>
</defs>
</svg>
