<svg width="18" height="18" viewBox="0 0 18 18" fill="none" xmlns="http://www.w3.org/2000/svg">
<path d="M8.90239 1.40754C7.63357 1.42468 4.90348 1.63296 3.37628 3.03228C2.24258 4.15939 1.84645 5.82104 1.80031 7.87884C1.76076 9.92872 1.71463 13.778 5.4255 14.8267V16.4218C5.4255 16.4218 5.40046 17.0611 5.8223 17.1929C6.34301 17.3577 6.63961 16.864 7.13396 16.3367L8.05673 15.2953C10.5944 15.5062 12.5388 15.0191 12.7629 14.9466C13.277 14.7819 16.1778 14.4121 16.6524 10.5621C17.1401 6.58695 16.4151 4.08227 15.11 2.94857L15.1034 2.94726C14.708 2.58474 13.1261 1.43127 9.58656 1.41808C9.58656 1.41808 9.32555 1.40161 8.90239 1.40754ZM8.94655 2.52607C9.30578 2.5241 9.52658 2.53926 9.52658 2.53926C12.519 2.54585 13.95 3.44885 14.2861 3.75205C15.3869 4.69394 15.9524 6.95276 15.5385 10.2721C15.143 13.4887 12.7899 13.693 12.3549 13.8314C12.1703 13.8907 10.4566 14.3126 8.29995 14.1741C8.29995 14.1741 6.69234 16.1126 6.19141 16.6136C6.11231 16.6993 6.02003 16.7256 5.96071 16.7124C5.87503 16.6927 5.84866 16.5872 5.85525 16.4422L5.86844 13.7932C2.72375 12.9231 2.9083 9.63936 2.94126 7.92563C2.98081 6.21191 3.30378 4.80665 4.25951 3.85751C5.54942 2.69086 7.86822 2.53267 8.94589 2.52607H8.94655ZM9.18384 4.2398C9.1579 4.23972 9.1322 4.24475 9.10822 4.25461C9.08423 4.26448 9.06243 4.27898 9.04406 4.29729C9.02569 4.3156 9.01111 4.33736 9.00117 4.36131C8.99122 4.38526 8.9861 4.41094 8.9861 4.43688C8.9861 4.48932 9.00693 4.53962 9.04402 4.5767C9.0811 4.61379 9.1314 4.63462 9.18384 4.63462C9.67386 4.62527 10.1609 4.71307 10.6168 4.89294C11.0727 5.07282 11.4885 5.34121 11.8401 5.68263C12.5586 6.3813 12.9086 7.31726 12.9217 8.54323C12.9217 8.5692 12.9269 8.59491 12.9368 8.61891C12.9467 8.6429 12.9613 8.66469 12.9797 8.68306C12.998 8.70142 13.0198 8.71598 13.0438 8.72592C13.0678 8.73586 13.0935 8.74097 13.1195 8.74097V8.73504C13.1719 8.73504 13.2222 8.71421 13.2593 8.67712C13.2964 8.64004 13.3172 8.58975 13.3172 8.5373C13.3417 7.96075 13.2485 7.38526 13.0434 6.84588C12.8383 6.30649 12.5255 5.8145 12.1242 5.39986C11.3398 4.63528 10.3498 4.2398 9.18318 4.2398H9.18384ZM6.57766 4.6946C6.43748 4.67462 6.29467 4.70249 6.17229 4.77369H6.16438C5.89414 4.93188 5.64499 5.12962 5.40771 5.39327C5.22974 5.60419 5.13022 5.81445 5.10385 6.01878C5.08834 6.13862 5.0996 6.26041 5.13681 6.37537L5.14999 6.38196C5.35315 6.97922 5.61824 7.55359 5.94094 8.09569C6.35923 8.85488 6.87314 9.55731 7.47011 10.1858L7.48989 10.2121L7.51625 10.2319L7.53602 10.2517L7.5558 10.2715C8.18673 10.8699 8.89102 11.386 9.65182 11.8072C10.5219 12.2818 11.0505 12.5059 11.3669 12.5982V12.6048C11.4591 12.6311 11.5435 12.6443 11.6292 12.6443C11.8993 12.6246 12.155 12.5151 12.3556 12.3332C12.6126 12.1025 12.8169 11.8468 12.9685 11.5765V11.5699C13.1201 11.2865 13.0674 11.0156 12.8499 10.8311C12.4115 10.4476 11.9369 10.1076 11.4328 9.81601C11.0966 9.63145 10.7539 9.7435 10.6155 9.92806L10.3189 10.3031C10.1673 10.4877 9.89042 10.4613 9.89042 10.4613L9.88251 10.4679C7.82604 9.94058 7.27897 7.8584 7.27897 7.8584C7.27897 7.8584 7.2526 7.57498 7.44375 7.42997L7.81286 7.13336C7.99082 6.98836 8.11606 6.64561 7.92491 6.30946C7.63367 5.80505 7.2937 5.33041 6.90985 4.89234C6.82636 4.78878 6.70849 4.71862 6.57766 4.6946ZM9.52593 5.28122C9.47348 5.2814 9.42326 5.3024 9.3863 5.3396C9.34934 5.37681 9.32867 5.42717 9.32885 5.47962C9.32902 5.53206 9.35002 5.58229 9.38723 5.61925C9.42444 5.65621 9.4748 5.67687 9.52724 5.6767C10.1869 5.68815 10.815 5.96074 11.2739 6.43469C11.481 6.66309 11.6401 6.93066 11.742 7.22161C11.8439 7.51256 11.8865 7.82098 11.8671 8.12864C11.8673 8.18097 11.8882 8.2311 11.9253 8.26804C11.9624 8.30498 12.0125 8.32572 12.0649 8.32572L12.0715 8.33363C12.0975 8.33363 12.1233 8.3285 12.1473 8.31852C12.1713 8.30854 12.1932 8.29391 12.2115 8.27548C12.2299 8.25705 12.2444 8.23518 12.2543 8.21111C12.2642 8.18704 12.2693 8.16126 12.2692 8.13523C12.289 7.35088 12.0451 6.69175 11.5639 6.16445C11.0828 5.63715 10.4105 5.34054 9.55361 5.28122C9.54439 5.28057 9.53514 5.28057 9.52593 5.28122ZM9.8489 6.34835C9.82245 6.34757 9.79611 6.352 9.77139 6.3614C9.74666 6.3708 9.72402 6.38498 9.70477 6.40313C9.68552 6.42128 9.67004 6.44304 9.6592 6.46717C9.64836 6.4913 9.64238 6.51733 9.6416 6.54378C9.64082 6.57022 9.64526 6.59656 9.65466 6.62129C9.66406 6.64601 9.67824 6.66865 9.69638 6.6879C9.71453 6.70715 9.73629 6.72263 9.76043 6.73347C9.78456 6.74431 9.81059 6.75029 9.83703 6.75107C10.4896 6.78403 10.8059 7.11359 10.8455 7.79249C10.8472 7.84378 10.8688 7.8924 10.9057 7.92807C10.9426 7.96374 10.9919 7.98366 11.0432 7.98364H11.0498C11.0764 7.98281 11.1025 7.97664 11.1266 7.9655C11.1507 7.95435 11.1724 7.93847 11.1902 7.91878C11.208 7.89909 11.2217 7.87601 11.2305 7.85092C11.2392 7.82582 11.2428 7.79922 11.241 7.77272C11.1948 6.88949 10.7137 6.39448 9.85681 6.34835C9.85417 6.34829 9.85153 6.34829 9.8489 6.34835Z" fill="white"/>
</svg>
