<svg width="19" height="18" viewBox="0 0 19 18" fill="none" xmlns="http://www.w3.org/2000/svg">
<g clip-path="url(#clip0_2831_2694)">
<path d="M9.08727 1.45441C7.82624 1.47144 5.11289 1.67844 3.59507 3.06918C2.46833 4.18937 2.07463 5.84082 2.02878 7.88599C1.98947 9.92329 1.94362 13.749 5.63172 14.7912V16.3765C5.63172 16.3765 5.60682 17.0119 6.02608 17.1429C6.54359 17.3067 6.83838 16.816 7.32969 16.292L8.2468 15.257C10.7689 15.4666 12.7013 14.9825 12.9241 14.9104C13.435 14.7466 16.318 14.3791 16.7897 10.5528C17.2745 6.60203 16.5539 4.11272 15.2568 2.98598L15.2503 2.98467C14.8572 2.62438 13.285 1.47799 9.76724 1.46489C9.76724 1.46489 9.50783 1.44851 9.08727 1.45441ZM9.13116 2.56608C9.48818 2.56411 9.70763 2.57918 9.70763 2.57918C12.6817 2.58573 14.1039 3.48319 14.438 3.78453C15.5319 4.72064 16.094 6.9656 15.6826 10.2646C15.2896 13.4614 12.9509 13.6645 12.5186 13.802C12.3352 13.861 10.6319 14.2802 8.48852 14.1427C8.48852 14.1427 6.89078 16.0693 6.39292 16.5671C6.31431 16.6523 6.2226 16.6785 6.16364 16.6654C6.07848 16.6457 6.05228 16.5409 6.05883 16.3968L6.07193 13.764C2.94654 12.8993 3.12997 9.6357 3.16272 7.9325C3.20202 6.22929 3.52301 4.83266 4.47288 3.88934C5.75487 2.72985 8.05945 2.57263 9.1305 2.56608H9.13116ZM9.36699 4.26929C9.34121 4.2692 9.31567 4.2742 9.29183 4.28401C9.26799 4.29381 9.24632 4.30823 9.22806 4.32642C9.2098 4.34462 9.19532 4.36624 9.18543 4.39005C9.17555 4.41385 9.17046 4.43938 9.17046 4.46516C9.17046 4.51728 9.19117 4.56726 9.22802 4.60412C9.26488 4.64097 9.31486 4.66168 9.36699 4.66168C9.854 4.65239 10.338 4.73965 10.7912 4.91842C11.2443 5.09719 11.6575 5.36394 12.007 5.70326C12.721 6.39764 13.0688 7.32786 13.0819 8.54631C13.0819 8.57211 13.087 8.59767 13.0969 8.62151C13.1068 8.64536 13.1213 8.66702 13.1395 8.68527C13.1578 8.70352 13.1794 8.71799 13.2033 8.72787C13.2271 8.73775 13.2527 8.74283 13.2785 8.74283V8.73694C13.3306 8.73694 13.3806 8.71623 13.4174 8.67937C13.4543 8.64252 13.475 8.59253 13.475 8.54041C13.4993 7.9674 13.4067 7.39544 13.2029 6.85937C12.999 6.32329 12.6882 5.83432 12.2893 5.42223C11.5098 4.66233 10.5258 4.26929 9.36633 4.26929H9.36699ZM6.7768 4.72129C6.63749 4.70144 6.49555 4.72913 6.37392 4.7999H6.36606C6.09748 4.95712 5.84986 5.15364 5.61403 5.41568C5.43716 5.6253 5.33824 5.83427 5.31204 6.03735C5.29662 6.15645 5.30781 6.27749 5.34479 6.39175L5.35789 6.3983C5.55981 6.9919 5.82327 7.56274 6.14399 8.10151C6.55971 8.85604 7.07047 9.55416 7.66378 10.1788L7.68343 10.205L7.70963 10.2246L7.72928 10.2443L7.74894 10.2639C8.376 10.8587 9.07597 11.3716 9.83209 11.7903C10.6968 12.2619 11.2222 12.4847 11.5366 12.5764V12.5829C11.6283 12.6091 11.7122 12.6222 11.7973 12.6222C12.0657 12.6026 12.3199 12.4938 12.5192 12.313C12.7747 12.0837 12.9778 11.8296 13.1285 11.561V11.5544C13.2791 11.2728 13.2267 11.0035 13.0105 10.8201C12.5749 10.439 12.1032 10.1011 11.6021 9.81127C11.268 9.62784 10.9274 9.73921 10.7898 9.92263L10.495 10.2954C10.3444 10.4788 10.0692 10.4526 10.0692 10.4526L10.0614 10.4591C8.01752 9.93508 7.4738 7.86568 7.4738 7.86568C7.4738 7.86568 7.4476 7.58399 7.63757 7.43988L8.00442 7.14509C8.18129 7.00097 8.30576 6.66033 8.11578 6.32624C7.82634 5.82493 7.48845 5.3532 7.10696 4.91782C7.02398 4.8149 6.90683 4.74517 6.7768 4.72129ZM9.70697 5.30431C9.65485 5.30449 9.60493 5.32536 9.5682 5.36234C9.53147 5.39932 9.51093 5.44937 9.5111 5.50149C9.51128 5.55361 9.53215 5.60353 9.56913 5.64026C9.60611 5.677 9.65616 5.69754 9.70828 5.69736C10.3639 5.70874 10.9882 5.97966 11.4442 6.4507C11.65 6.6777 11.8082 6.94363 11.9095 7.2328C12.0107 7.52196 12.053 7.82848 12.0338 8.13426C12.034 8.18627 12.0548 8.23609 12.0916 8.2728C12.1284 8.30952 12.1783 8.33013 12.2303 8.33013L12.2369 8.33799C12.2628 8.33799 12.2884 8.33289 12.3123 8.32297C12.3361 8.31305 12.3578 8.29852 12.3761 8.2802C12.3943 8.26188 12.4088 8.24014 12.4186 8.21622C12.4285 8.1923 12.4335 8.16667 12.4334 8.14081C12.4531 7.36127 12.2107 6.70619 11.7325 6.18212C11.2543 5.65806 10.5861 5.36327 9.73449 5.30431C9.72533 5.30367 9.71613 5.30367 9.70697 5.30431ZM10.028 6.36489C10.0017 6.36411 9.9755 6.36852 9.95093 6.37787C9.92635 6.38721 9.90385 6.4013 9.88472 6.41934C9.86559 6.43737 9.8502 6.459 9.83943 6.48298C9.82866 6.50697 9.82271 6.53284 9.82194 6.55912C9.82116 6.5854 9.82557 6.61158 9.83492 6.63615C9.84426 6.66073 9.85835 6.68323 9.87639 6.70236C9.89442 6.72149 9.91605 6.73688 9.94003 6.74765C9.96402 6.75843 9.98989 6.76437 10.0162 6.76514C10.6647 6.7979 10.9791 7.12544 11.0184 7.80017C11.0201 7.85115 11.0416 7.89947 11.0783 7.93492C11.1149 7.97037 11.164 7.99017 11.215 7.99014H11.2215C11.2479 7.98932 11.2739 7.98319 11.2978 7.97212C11.3218 7.96104 11.3433 7.94525 11.361 7.92568C11.3788 7.90612 11.3924 7.88318 11.401 7.85824C11.4097 7.8333 11.4133 7.80686 11.4115 7.78052C11.3656 6.90271 10.8874 6.41074 10.0358 6.36489C10.0332 6.36484 10.0306 6.36484 10.028 6.36489Z" fill="#1E2123"/>
</g>
<defs>
<clipPath id="clip0_2831_2694">
<rect width="17.8895" height="17.8895" fill="white" transform="translate(0.239258 0.0546875)"/>
</clipPath>
</defs>
</svg>
