<svg width="25" height="15" viewBox="0 0 25 15" fill="none" xmlns="http://www.w3.org/2000/svg">
<path d="M24.2554 1.61604C24.4231 1.06908 24.2554 0.667969 23.4625 0.667969H20.836C20.1676 0.667969 19.8622 1.01497 19.6946 1.39608C19.6946 1.39608 18.3591 4.59437 16.4668 6.66814C15.8559 7.27156 15.5769 7.46212 15.2439 7.46212C15.0774 7.46212 14.8355 7.27156 14.8355 6.7246V1.61604C14.8355 0.959685 14.6427 0.667969 14.0857 0.667969H9.95847C9.54167 0.667969 9.29015 0.971447 9.29015 1.26081C9.29015 1.88188 10.2363 2.02539 10.3333 3.77568V7.57269C10.3333 8.40432 10.1812 8.55606 9.84589 8.55606C8.956 8.55606 6.79056 5.34601 5.50543 1.67133C5.25511 0.957332 5.0024 0.669145 4.33169 0.669145H1.70633C0.955376 0.669145 0.805664 1.01615 0.805664 1.39726C0.805664 2.08185 1.69555 5.46951 4.9509 9.94994C7.12112 13.0094 10.1765 14.668 12.9599 14.668C14.6283 14.668 14.8343 14.2998 14.8343 13.6646V11.3521C14.8343 10.6157 14.9936 10.4675 15.5218 10.4675C15.9098 10.4675 16.5781 10.6604 18.1364 12.1343C19.9161 13.8822 20.2108 14.6668 21.2108 14.6668H23.8362C24.586 14.6668 24.9608 14.2986 24.7452 13.5717C24.5093 12.8483 23.6589 11.7955 22.5307 10.5498C21.9175 9.83937 21.0012 9.07479 20.7222 8.6925C20.3329 8.19964 20.4455 7.98203 20.7222 7.54446C20.7234 7.54564 23.9224 3.1205 24.2554 1.61604Z" fill="#1E2123"/>
</svg>
