<svg width="18" height="18" viewBox="0 0 18 18" fill="none" xmlns="http://www.w3.org/2000/svg">
<g clip-path="url(#clip0_2831_2682)">
<path d="M14.8583 9.7653C14.569 9.40005 14.6518 9.23756 14.8583 8.91107C14.862 8.90734 17.2495 5.60822 17.4955 4.48938L17.497 4.48863C17.6192 4.0809 17.497 3.78125 16.9059 3.78125H14.9499C14.452 3.78125 14.2224 4.03841 14.0994 4.32614C14.0994 4.32614 13.1036 6.70991 11.6948 8.25512C11.2401 8.70161 11.0299 8.84473 10.7817 8.84473C10.6594 8.84473 10.4694 8.70161 10.4694 8.29388V4.48863C10.4694 3.99965 10.33 3.78125 9.91776 3.78125H6.84225C6.52993 3.78125 6.34433 4.00934 6.34433 4.22178C6.34433 4.68542 7.04873 4.79201 7.12178 6.09645V8.92672C7.12178 9.5469 7.00922 9.66094 6.75951 9.66094C6.09462 9.66094 4.48084 7.26747 3.52449 4.52814C3.33143 3.99667 3.14285 3.782 2.6412 3.782H0.684529C0.126227 3.782 0.0136719 4.03916 0.0136719 4.32688C0.0136719 4.83524 0.678566 7.36288 3.10558 10.7023C4.72309 12.9817 7.00102 14.2168 9.07323 14.2168C10.3188 14.2168 10.4708 13.9425 10.4708 13.4707C10.4708 11.2926 10.3583 11.0869 10.9822 11.0869C11.2714 11.0869 11.7693 11.23 12.9321 12.3295C14.2612 13.6332 14.4796 14.2168 15.2235 14.2168H17.1794C17.737 14.2168 18.0195 13.9425 17.857 13.4013C17.485 12.2631 14.9716 9.92183 14.8583 9.7653Z" fill="#1E2123"/>
</g>
<defs>
<clipPath id="clip0_2831_2682">
<rect width="17.8895" height="17.8895" fill="white" transform="translate(0.0136719 0.0546875)"/>
</clipPath>
</defs>
</svg>
