<svg width="19" height="18" viewBox="0 0 19 18" fill="none" xmlns="http://www.w3.org/2000/svg">
<path d="M14.7571 3.61983C14.0611 2.91869 13.2326 2.36282 12.32 1.98451C11.4073 1.60619 10.4286 1.41296 9.44058 1.41605C5.29937 1.41605 1.92877 4.78665 1.92877 8.9307C1.92877 10.2549 2.27569 11.5496 2.93256 12.6871L1.86621 16.5818L5.85008 15.5364C6.95145 16.1363 8.18545 16.4511 9.43963 16.452H9.44247C13.5837 16.452 16.9571 13.0814 16.9571 8.93734C16.9596 7.9497 16.7664 6.97136 16.3887 6.05882C16.0109 5.14628 15.456 4.31765 14.7562 3.62078L14.7571 3.61983ZM9.44247 15.1838C8.3232 15.1839 7.22447 14.8831 6.26145 14.3127L6.03301 14.1762L3.66904 14.7951L4.30032 12.4909L4.15245 12.2539C3.52474 11.2594 3.19302 10.1068 3.19606 8.9307C3.19807 7.27393 3.85731 5.68562 5.02909 4.51437C6.20088 3.34311 7.78948 2.6846 9.44626 2.68334C11.1136 2.68334 12.6842 3.33547 13.8624 4.51367C14.4438 5.09299 14.9046 5.78178 15.2183 6.54025C15.532 7.29872 15.6922 8.11183 15.6898 8.9326C15.687 12.38 12.8851 15.1828 9.44247 15.1828V15.1838ZM12.8671 10.5042C12.6804 10.4094 11.7562 9.95629 11.5846 9.89373C11.4131 9.83117 11.288 9.79895 11.1609 9.98852C11.0368 10.1752 10.6756 10.5989 10.5657 10.726C10.4557 10.8501 10.3467 10.8681 10.16 10.7733C9.97328 10.6786 9.3657 10.4805 8.64911 9.84065C8.09177 9.34302 7.71357 8.72691 7.60362 8.54018C7.49367 8.35346 7.5913 8.25014 7.68703 8.1582C7.77329 8.07478 7.87376 7.93924 7.96855 7.82929C8.06333 7.71934 8.09272 7.64256 8.15528 7.51555C8.21783 7.39138 8.1875 7.28142 8.14011 7.18664C8.09272 7.09185 7.71642 6.16769 7.56286 5.79138C7.41215 5.42361 7.25481 5.4748 7.13917 5.46816C7.02922 5.46248 6.90505 5.46248 6.78088 5.46248C6.65671 5.46248 6.45197 5.50987 6.2804 5.6966C6.10884 5.88333 5.62259 6.33925 5.62259 7.26341C5.62259 8.18758 6.29462 9.07952 6.38941 9.20653C6.4842 9.3307 7.71357 11.2293 9.59697 12.0416C10.0444 12.234 10.3941 12.3496 10.6662 12.4387C11.1164 12.5809 11.5249 12.5601 11.8481 12.5127C12.2093 12.4596 12.959 12.0596 13.1164 11.6207C13.2737 11.1819 13.2737 10.8065 13.2263 10.7288C13.1818 10.6454 13.0576 10.5989 12.868 10.5032L12.8671 10.5042Z" fill="#1E2123"/>
</svg>
