<svg width="18" height="18" viewBox="0 0 18 18" fill="none" xmlns="http://www.w3.org/2000/svg">
<path d="M14.3797 3.58852C13.6794 2.88305 12.8458 2.32375 11.9275 1.94309C11.0092 1.56244 10.0244 1.36802 9.03032 1.37113C4.86354 1.37113 1.47212 4.76254 1.47212 8.93219C1.47212 10.2645 1.82118 11.5673 2.48211 12.7118L1.40918 16.6306L5.41765 15.5786C6.52583 16.1823 7.76745 16.499 9.02937 16.4999H9.03223C13.199 16.4999 16.5933 13.1085 16.5933 8.93886C16.5958 7.94513 16.4014 6.96074 16.0213 6.04257C15.6412 5.1244 15.0829 4.29064 14.3788 3.58947L14.3797 3.58852ZM9.03223 15.2239C7.90604 15.224 6.80053 14.9213 5.83156 14.3474L5.60171 14.2101L3.22315 14.8328L3.85832 12.5143L3.70954 12.2759C3.07795 11.2752 2.74418 10.1155 2.74724 8.93219C2.74926 7.26518 3.41257 5.66707 4.59159 4.48858C5.77062 3.31009 7.36903 2.64751 9.03604 2.64625C10.7136 2.64625 12.2939 3.3024 13.4794 4.48787C14.0644 5.07077 14.5281 5.76382 14.8437 6.52697C15.1593 7.29013 15.3206 8.10826 15.3182 8.9341C15.3153 12.4028 12.4961 15.2229 9.03223 15.2229V15.2239ZM12.478 10.5154C12.2901 10.42 11.3602 9.96411 11.1876 9.90116C11.015 9.83822 10.8891 9.80579 10.7613 9.99653C10.6364 10.1844 10.273 10.6107 10.1624 10.7385C10.0518 10.8635 9.94207 10.8816 9.75419 10.7862C9.56631 10.6908 8.95498 10.4915 8.23397 9.84775C7.67318 9.34705 7.29265 8.72714 7.18202 8.53926C7.07139 8.35138 7.16962 8.24742 7.26595 8.15491C7.35274 8.07098 7.45383 7.9346 7.5492 7.82397C7.64457 7.71334 7.67414 7.63609 7.73708 7.50829C7.80003 7.38335 7.76951 7.27272 7.72182 7.17735C7.67414 7.08198 7.29551 6.15211 7.14101 5.77348C6.98937 5.40344 6.83105 5.45494 6.7147 5.44827C6.60407 5.44254 6.47913 5.44254 6.3542 5.44254C6.22926 5.44254 6.02326 5.49023 5.85063 5.67811C5.67801 5.86599 5.18876 6.32473 5.18876 7.2546C5.18876 8.18448 5.86494 9.08192 5.96031 9.20972C6.05568 9.33466 7.29265 11.2449 9.18768 12.0623C9.63784 12.2559 9.98976 12.3722 10.2635 12.4619C10.7165 12.6049 11.1275 12.584 11.4528 12.5363C11.8161 12.4829 12.5705 12.0804 12.7288 11.6388C12.8871 11.1973 12.8871 10.8196 12.8395 10.7414C12.7946 10.6575 12.6697 10.6107 12.479 10.5144L12.478 10.5154Z" fill="white"/>
</svg>
